<svg xmlns="http://www.w3.org/2000/svg" xmlns:svg="http://www.w3.org/2000/svg" id="svg3422" width="48" height="48" version="1.1" viewBox="0 0 48 48"><metadata id="metadata3432"/><circle style="fill:#1b5e20;fill-opacity:1;fill-rule:evenodd;stroke:none;stroke-width:1px;stroke-linecap:butt;stroke-linejoin:miter;stroke-opacity:1" id="path3434" cx="24" cy="24" r="24"/><path id="path3426" fill="none" d="M0 0h48v48h-48z"/><path id="path3424" d="M 34.285714,16 C 34.285714,10.317143 29.682857,5.7142857 24,5.7142857 18.317143,5.7142857 13.714286,10.317143 13.714286,16 13.714286,23.714286 24,34.857143 24,34.857143 24,34.857143 34.285714,23.714286 34.285714,16 Z m -13.714285,0 c 0,-1.894286 1.534285,-3.428571 3.428571,-3.428571 1.894286,0 3.428571,1.534285 3.428571,3.428571 0,1.894286 -1.534285,3.428571 -3.428571,3.428571 -1.894286,0 -3.428571,-1.534285 -3.428571,-3.428571 z M 12,36.571429 12,40 l 24,0 0,-3.428571 -24,0 z" style="fill:#ffc107;fill-opacity:1"/></svg>